<?xml version="1.0" encoding="UTF-8"?>
<svg id="Layer_1" xmlns="http://www.w3.org/2000/svg" version="1.1" viewBox="0 0 300 400">
  <!-- Generator: Adobe Illustrator 29.8.3, SVG Export Plug-In . SVG Version: 2.1.1 Build 3)  -->
  <defs>
    <style>
      .st0 {
        stroke-dasharray: 11.7 11.7;
      }

      .st0, .st1, .st2, .st3, .st4, .st5, .st6, .st7, .st8, .st9, .st10, .st11, .st12, .st13, .st14, .st15, .st16, .st17, .st18, .st19, .st20, .st21, .st22, .st23, .st24, .st25, .st26 {
        fill: none;
        stroke: #000;
        stroke-linecap: round;
        stroke-linejoin: round;
        stroke-width: 1.8px;
      }

      .st1 {
        stroke-dasharray: 11.8 11.8;
      }

      .st2 {
        stroke-dasharray: 13.3 13.3;
      }

      .st3 {
        stroke-dasharray: 12.9 12.9;
      }

      .st4 {
        stroke-dasharray: 12.1 12.1;
      }

      .st5 {
        stroke-dasharray: 11.4 11.4;
      }

      .st6 {
        stroke-dasharray: 13 13;
      }

      .st7 {
        stroke-dasharray: 12.4 12.4;
      }

      .st8 {
        stroke-dasharray: 12.8 12.8;
      }

      .st9 {
        stroke-dasharray: 14.7 14.7;
      }

      .st10 {
        stroke-dasharray: 10.8 10.8;
      }

      .st11 {
        stroke-dasharray: 14.6 14.6;
      }

      .st12 {
        stroke-dasharray: 10.5 10.5;
      }

      .st13 {
        stroke-dasharray: 12.3 12.3;
      }

      .st14 {
        stroke-dasharray: 11.6 11.6;
      }

      .st15 {
        stroke-dasharray: 8 8;
      }

      .st17 {
        stroke-dasharray: 13.6 13.6;
      }

      .st18 {
        stroke-dasharray: 7.5 7.5;
      }

      .st19 {
        stroke-dasharray: 11.5 11.5;
      }

      .st20 {
        stroke-dasharray: 11 11;
      }

      .st21 {
        stroke-dasharray: 7 7;
      }

      .st22 {
        stroke-dasharray: 12.2 12.2;
      }

      .st23 {
        stroke-dasharray: 12 12;
      }

      .st24 {
        stroke-dasharray: 9.9 9.9;
      }

      .st25 {
        stroke-dasharray: 11.9 11.9;
      }

      .st26 {
        stroke-dasharray: 11.3 11.3;
      }
    </style>
  </defs>
  <line class="st16" x1="112.6" y1="42" x2="110.5" y2="44.3"/>
  <path class="st10" d="M106.7,48.4l-4.2,4.4c-3.2,3.4-5.7,7.4-7.3,11.9-.8,2-.8,4.3,0,6.3.1.3.4.5.8.5l1.6-.6c.4-.1.9-.3,1.4-.4"/>
  <path class="st16" d="M101.9,69.9c1.1,0,2.2-.1,3.3,0l-.3,3"/>
  <path class="st4" d="M104.8,78.8c.3,1.6,1,3.2,2,4.6,2.7,4,6.5,7,10.9,8.7,4.3,1.6,8.1,4.2,11.4,7.5,3.4,3.5,6.7,7.1,9.9,10.8,3.6,4.1,5.9,9.2,6.7,14.6.7,4.9.9,10,.5,14.9-.3,4.8,0,9.6,1.1,14.2.7,3.1,1.3,6.2,1.8,9.4.8,5.4.8,10.9.2,16.3-1.6,13.6-3.5,27.3-5.5,40.9-.4,3-1,6-1.6,8.9-.6,3.1-1,6.3-1.3,9.5-.3,3.3-1,6.6-2.4,9.7-.5,1.1-.8,2.2-1,3.4"/>
  <path class="st16" d="M137.1,255.3c0,1,.1,2,.3,3"/>
  <path class="st16" d="M196.1,20.8c.9.6,1.7,1.2,2.5,1.9"/>
  <path class="st0" d="M202.6,27.3c.7,1,1.3,2.1,1.8,3.2,2.4,5.1,4.9,10.2,7.7,15.1,1.3,2.3,2.7,4.7,4.1,7,4.9,8,8.6,16.9,10.8,26.2.3,1.1.5,2.2.9,3.2h0c0,.1,0,.3-.2.3-.1,0-.2,0-.3,0h0c-1-4.8-3.1-9.1-6-12.8-1.2-1.4-3.2-1.6-4.6-.4-.1,0-.3.2-.4.4-.8,1-1.6,2-2.5,2.9-.8.8-1.5,1.7-2.3,2.6-2.5,2.8-4.8,5.8-6.9,8.9-2.4,3.4-5.6,6.3-9.3,8.2-.8.4-1.6.9-2.4,1.3-4.1,2.4-7.9,5.3-11.4,8.5-5.1,4.8-11,8.4-17.5,10.7-5.1,1.8-9.8,4.6-13.9,8.2"/>
  <line class="st16" x1="147.9" y1="123" x2="145.7" y2="125.1"/>
  <path class="st16" d="M183.3,8.1c-.4.9-1,1.8-1.7,2.5"/>
  <path class="st1" d="M176.6,14.3c-6.8,4.1-14.2,7.2-21.9,9-6.2,1.4-12.3,3-18.4,4.6-1.5.2-3,.2-4.4,0-1.7-.1-3.4-.6-5-1.2-.9-.3-1.8-.7-2.6-1.2-2.8-1-5-3.3-6-6.3-.3-.8-.3-1.6-.2-2.4v-.5c.3-2.6,0-5.2-.7-7.7-.7-4.9-2.5-9.5-5.2-13.5"/>
  <line class="st16" x1="197.1" y1="8.2" x2="195.7" y2="10.8"/>
  <path class="st26" d="M187.9-109.4"/>
  <line class="st16" x1="131.8" y1="28" x2="131.7" y2="31"/>
  <path class="st26" d="M130.7,36.5c-.8,2.3-1.9,4.5-3.5,6.4-4.6,5.7-8.4,12-11.3,18.8-2.1,4.9-2.3,10.5-.5,15.5,1.9,5.4,4.6,10.5,8.1,15,.7.8,1.4,1.7,2,2.6"/>
  <path class="st16" d="M127.3,97.2c.6.8,1.2,1.6,1.8,2.5"/>
  <path class="st16" d="M192.9,93.4c.7-.8,1.3-1.6,2-2.4"/>
  <path class="st7" d="M198.6,85.9c.3-.5.7-1,1-1.5,5.7-8.5,8.7-18.7,8.5-29.1,0-.6-.2-1.2-.6-1.6-3.8-4.8-6.5-10.5-7.9-16.5-.7-3.2-1.4-6.4-2.1-9.7l-1.5-6.7-.3-4.5c-.1-1.8-.2-3.6-.2-5.4,0-2.8.2-5.7.5-8.5.3-2.8.8-5.6,1.4-8.4"/>
  <path class="st16" d="M211.5,74.9c1.1,0,2.2,0,3.2.4"/>
  <path class="st21" d="M218.2,76.8c.1,0,.2.1.3.2,1.5.9,3,1.9,4.4,2.7"/>
  <path class="st16" d="M224.6,80.7c.9.5,1.9,1,2.9,1.5"/>
  <path class="st16" d="M95.9,71.5v-3"/>
  <path class="st11" d="M98.2,61.6c1.6-2.2,4.6-2.8,6.9-1.4,1,.6,1.6,1.7,1.8,2.9v.3"/>
  <line class="st16" x1="105.9" y1="66.9" x2="105.2" y2="69.9"/>
  <path class="st23" d="M172.4,294.7c.4-.9,1-1.8,1.7-2.5"/>
  <path class="st23" d="M179,287.9c3.5-2.7,7.3-4.9,11.4-6.6.7-.3,1.5-.5,2.3-.7.6-.1,1.2-.2,1.8-.1,14.1,1.2,25.2,12.9,26.3,27.5v1.9"/>
  <path class="st23" d="M221,312.8l.2,3c1-.2,2.1-.5,3.2-.8"/>
  <path class="st23" d="M230.5,312.7c.3-.1.7-.3,1-.4,5.5-2.5,10.4-6.2,14.4-10.8,2.1-2.4,4.4-4.6,6.9-6.6,9.5-7.7,17.9-16.9,24.7-27.3,1-1.5,1.8-3.2,2.4-5,2-5.9,3-12.2,3.1-18.4.1-18.2,0-36.5-.6-54.7,0-2.7,0-5.4.1-8.1,0-1.5.2-3,.4-4.6.8-7.6,1.2-15.2,1.1-22.8,0-13.9-1.2-27.8-3.5-41.5-1.4-8.5-3.2-16.9-5.3-25.3-1.6-6.2-5.5-11.6-10.9-14.8-3.6-2.2-7.2-4.5-10.7-6.9-8.9-6.1-18.6-10.9-28.7-14.3-2.4-.8-4.8-1.7-7.1-2.7"/>
  <path class="st23" d="M215,47h-.1l-2.8-1.3"/>
  <line class="st16" x1="135.1" y1="330.2" x2="138.2" y2="329.2"/>
  <path class="st15" d="M142.3,327.8l4.5-1.5c.5-.2,1.2-.3,1.8-.5"/>
  <path class="st16" d="M150.7,325.2c1-.2,2.1-.5,3.2-.7"/>
  <path class="st16" d="M122,326l-1,.3c-.7.2-1.4.3-2.1.4"/>
  <path class="st20" d="M112.9,325.9c-1.1-.4-2.1-1-3.1-1.6-.3-.2-.5-.4-.7-.7-.9-1.3-.6-3.2.7-4.2h1.5c2,.2,4-.2,5.7-1.2,2-1.1,4-2.2,6-3.3,6.1-3.2,12.3-6.1,18.6-8.7"/>
  <path class="st16" d="M144.3,304.9c1-.4,2-.8,3-1.2"/>
  <path class="st16" d="M109.8,319.3l-.8-.2c-.6-.1-1-.7-1-1.4v-.4"/>
  <path class="st6" d="M111.4,311.8c2-1.6,4.1-2.9,6.2-4.1,2.9-1.6,5.7-3.5,8.1-5.8s3.4-2.9,5.2-4.1"/>
  <path class="st16" d="M133.9,295.9c.9-.5,1.9-1.1,2.8-1.6"/>
  <path class="st16" d="M126.5,301.2l-.9-1.7c-.2-.3-.3-.6-.5-.9"/>
  <path class="st8" d="M121.2,293.2c-.5-.6-1.2-1.3-1.8-1.9-1.8-1.6-3.6-3.1-5.4-4.7-.1,0-.2-.1-.2-.2"/>
  <path class="st16" d="M111.4,284.1c-.7-.8-1.2-1.6-1.8-2.5"/>
  <path class="st16" d="M123.2,295.8l1.8-.4c.5,0,.9-.2,1.4-.4"/>
  <path class="st5" d="M132,292.5c1.5-.7,3.1-1.3,4.7-1.6.9-.2,1.8-.2,2.7-.2,3.4,0,6.8.1,10.2.3,1.4,0,2.7.7,3.7,1.8,2.2,2.5,5,4.4,8.1,5.5,1.3.5,2.7.5,4.1,0,2.4-.9,4.8-2.1,6.9-3.6l4.1-2.5c2.1-1.3,4.6-1.6,6.9-.9,3.1.9,5.9,2.6,8.2,4.8,4.3,3.6,7.3,8.6,8.6,14.1"/>
  <path class="st16" d="M200.8,313c.1,1,.2,2,.2,3l-3,1.2"/>
  <path class="st3" d="M191.5,319.8c-4.2,1.7-8.2,3.9-12.1,6.4-5.4,3.5-11.8,5.2-18.1,4.8-5.5-.5-11-.8-16.6-.8-3.2.1-6.4.1-9.6,0-2.5.4-5.2.2-7.6-.6"/>
  <path class="st16" d="M124.3,328.1c-.9-.6-1.6-1.3-2.4-2.1l3.1-1"/>
  <path class="st9" d="M132.7,322.6c1.8-.5,3.6-1,5.4-1.5,2.1-.5,4.1-1.2,6.2-1.9"/>
  <path class="st16" d="M148,317.7c1-.4,2-.8,3-1.3"/>
  <path class="st16" d="M99.3,288.5l2,1.4c.2.1.4.2.5.4"/>
  <path class="st2" d="M107.5,294.7c2.7,2.2,5.3,4.5,7.9,7"/>
  <path class="st16" d="M117.8,304.1c.7.7,1.4,1.5,2.2,2.2"/>
  <path class="st16" d="M93.1,298l1.8,1.8c.2.1.3.3.4.4"/>
  <path class="st12" d="M99.5,303.8c.1,0,.2,0,.3.1,2.3,1.5,4.5,3,6.7,4.5"/>
  <path class="st16" d="M108.8,310.1c.9.6,1.8,1.2,2.6,1.8"/>
  <path class="st16" d="M91.8,308.4l1.9,1.5c.2.1.4.3.6.4"/>
  <path class="st18" d="M97.5,312.5c1.8,1,3.6,1.9,5.4,2.6"/>
  <path class="st16" d="M104.9,315.8c1,.3,2.1.6,3.2.8"/>
  <line class="st16" x1="109.8" y1="324.2" x2="106.5" y2="323.6"/>
  <path class="st19" d="M100.4,322.5c-1.9-.5-3.7-1.2-5.4-2.1-2.9-1.4-5.5-3.5-7.6-6.1-1.9-2.3-2.8-5.4-2.4-8.5.4-2.7.7-5.5.7-8.4,0-2.7.3-5.4.8-8,.4-2.2,1.6-4.2,3.5-5.5,3.1-2.2,5.9-4.7,8.4-7.6,1.4-1.6,3.5-2.5,5.7-2.4,2.3.1,4.3,1.3,5.5,3.3,1.2,1.7,2.7,3.1,4.5,4.1,4.2,2.1,8.2,4.7,11.9,7.8"/>
  <path class="st16" d="M128.3,291.1c.8.7,1.5,1.4,2.3,2.2"/>
  <path class="st16" d="M90,284l-2.2-1.1c-.2,0-.4-.2-.7-.3"/>
  <path class="st17" d="M79.8,281.8c-.4,0-.9.2-1.4.3-7,1.6-13.3,5.5-17.9,11.2-1.3,1.3-2.3,2.9-3,4.6-1.4,2.4-.9,5.6,1.1,7.5.6.6,1.3,1.1,2,1.4"/>
  <path class="st16" d="M64.2,307.5c1,0,2.1-.5,3-1.1l2.8,1.6"/>
  <path class="st4" d="M75.8,311c1.3.7,2.4,1.6,3.5,2.6,1.4,1,3,1.9,4.7,2.5"/>
  <path class="st16" d="M87.2,317c1.1.2,2.2.3,3.3.3"/>
  <line class="st16" x1="192.5" y1="319.5" x2="194.7" y2="321.7"/>
  <path class="st16" d="M197.9,324.1c.8.4,1.6.7,2.5.9.2,0,.4,0,.6,0,0-1,.1-2,.2-3"/>
  <path class="st16" d="M201.1,319c0-1,0-2-.1-3"/>
  <line class="st16" x1="200.9" y1="324.9" x2="203.9" y2="323.7"/>
  <path class="st24" d="M208.9,321.8c2.5-1,5-1.9,7.5-2.9"/>
  <path class="st16" d="M218.9,317.9c.2,0,.3,0,.4-.2.8-.3,1.5-1,1.8-1.8"/>
  <line class="st16" x1="67.3" y1="306.5" x2="64.6" y2="304.7"/>
  <path class="st16" d="M59.9,301.6c-1-.4-2.1-.6-3.2-.6"/>
  <path class="st16" d="M91.2,283.1l-.8-2.6c0,0,0-.1,0-.2"/>
  <path class="st23" d="M87.4,274.8c-2.4-3.3-4.8-6.5-7.3-9.8-1-1.3-2.5-2-4.1-2-6.9.1-13.7,2.3-19.4,6.4-7.7,5.5-12.1,14.8-11.5,24.6.1,1.6.6,3.2,1.4,4.6,1.5,2.6,3.7,4.8,6.2,6.4,1.4.8,2.8,1.4,4.3,1.9"/>
  <path class="st16" d="M60.2,307.6c1.1,0,2.2,0,3.3,0"/>
  <path class="st16" d="M74.8,263.1l-1.6-2.2c0,0-.2-.2-.2-.3"/>
  <path class="st6" d="M69.3,255.1c-.9-1.5-1.8-3-2.6-4.6-.8-1.5-1.5-3-2-4.6-.9-2.7-1.5-5.6-1.9-8.4-.6-5-.2-10.1,1.1-15,1.3-4.8,2.7-9.5,4.4-14.2"/>
  <path class="st16" d="M69.5,205.2c.5-.9,1.1-1.7,1.9-2.5"/>
  <path class="st16" d="M126.8,26.8c-.3,1-.8,1.9-1.4,2.7"/>
  <path class="st25" d="M120.6,33.6c-.8.7-1.5,1.4-2.3,2.1-1.4,1.3-2.7,2.8-4,4.3l-1.8,2.1c-14.7,2.8-29.2,6.3-43.5,10.5l-8.4,2.4c-3.3,2-6,4.9-8,8.3-4.2,7.6-7.5,15.7-9.5,24.2-3.1,13.1-6.8,26-11,38.8-2.1,6.5-3.5,13.3-4.1,20.1-.5,6.4-1.5,12.8-2.7,19-1.6,7.9-3.1,15.8-4.5,23.8-.7,3.8-1.5,7.5-2.5,11.2-.8,2.9-1.8,5.9-2.7,8.8-.2.6-.4,1.3-.7,2l-4.3,12.7c.2,3.4-.1,6.9-.9,10.3-.9,4.2,0,8.7,2.7,12.1,2,2.5,3.4,5.5,4.3,8.7.2.8.3,1.6.2,2.5-.4,2.6.9,5.2,3.2,6.2.9.4,1.7,1.1,2.3,2,3.4,5.7,6.9,11.4,10.3,17,1.4,2.2,2.4,4.7,3.1,7.3.4,1.6,1.6,3,3.1,3.7.9.4,1.7.9,2.5,1.4"/>
  <polyline class="st16" points="44 296.8 44.9 297.4 46.6 298.7"/>
  <line class="st16" x1="61.9" y1="84.1" x2="62.2" y2="87.1"/>
  <path class="st22" d="M62.7,93.1l.7,8c.7,8.4,2.9,16.6,6.4,24.2,1.3,2.7,2,5.6,2.2,8.6.3,4.1-.2,8.2-1.4,12.1-.9,2.9-.9,6,0,8.9.4,1.5.4,3.1,0,4.6-1.5,5.1-2.6,10.3-3.3,15.5-.5,4.2,0,8.5,1.4,12.4,1.2,3.4,1.9,7,2,10.6.3,8.4.4,16.9.3,25.3,0,5,.4,10,1.4,14.9.5,2.6,1.7,5,3.5,6.8,1,1.1,2.3,1.9,3.7,2.5,17.1,7.6,35.7,11.2,54.3,10.7,8.7-.2,17.4.8,25.9,3.1,15.2,4.2,31,5.1,46.5,2.7,4.4-.7,8.7-1.9,12.8-3.6"/>
  <path class="st16" d="M221.9,259.1c1-.5,1.9-1,2.9-1.5"/>
  <line class="st16" x1="194.3" y1="280.4" x2="197.2" y2="278.9"/>
  <path class="st14" d="M202.9,276.4c1-.4,2.1-.7,3.2-1,1.8-.5,3.5-1.4,4.9-2.8,2.9-2.8,5.7-5.7,8.5-8.7,4.9-5.4,9.2-11.5,12.4-18.1l1.2-11.4c.7-6.5,1.6-13.1,2.7-19.5,1.8-9.7,1.5-19.7-.9-29.3-1.6-6.4-1.6-13.2,0-19.6,1.3-5.3,2.2-10.6,2.6-16,.3-3.1.1-6.1-.4-9.2"/>
  <path class="st16" d="M236.5,138c-.3-.9-.5-1.9-.9-2.9"/>
  <line class="st16" x1="45.1" y1="297" x2="43.8" y2="299.7"/>
  <path class="st13" d="M41,305.3c-.7,1.4-1.3,2.8-1.8,4.2-1.6,4.2-3.8,8.2-6.3,11.9-2.2,3.2-3.8,6.8-4.8,10.6-1.4,5-2.6,10.1-3.8,15.1-2.2,9.4-1.6,19.2,1.8,28.1,2.3,6.2,6.3,11.7,11.4,15.7,3.5,2.8,7.1,5.3,10.9,7.7l1.8,1.4"/>
  <path class="st25" d="M57.2,394.9v-.2c.6-2.8.9-5.7,1-8.6"/>
  <path class="st16" d="M58.1,383.1c0-1-.1-2-.2-3"/>
  <path class="st23" d="M117.1,400c-.5-7.5.4-15.1,2.7-22.3,2.8-8.7,4.1-17.8,3.8-26.9v-5.6"/>
  <line class="st16" x1="123.4" y1="342.8" x2="123.3" y2="340.3"/>
  <path class="st16" d="M194.8,404.3c1-.4,2-.8,2.9-1.2"/>
  <path class="st7" d="M203.7,400.3c1.7-.9,3.4-1.8,5-2.9,5.6-3.5,11.2-7,16.8-10.7,5.9-3.8,10.8-8.9,14.3-14.7,3.1-5.1,4.6-11,4.2-17-.5-8.4-2.6-16.7-6.1-24.4-1.1-2.4-2-4.9-2.8-7.5-.6-2.2-1.2-4.5-1.6-6.8"/>
  <path class="st16" d="M233.3,313.6c-.1-.9-.2-1.8-.3-2.7"/>
  <path class="st16" d="M65.5,248.1l.9-1.6c.2-.3.4-.7.6-1"/>
  <path class="st16" d="M70.2,242.3c.3-.1.5-.3.8-.4.7-.3,1.3-.8,1.8-1.3"/>
  <path class="st16" d="M282.6,181.3h0"/>
  <path class="st23" d="M367.3,305.7"/>
  <path class="st1" d="M315.1,375.9"/>
  <path class="st1" d="M186.5,469.3"/>
  <path class="st16" d="M363.1,294.6"/>
  <path class="st23" d="M45.4,393.3c-2.3-6.1-3.7-12.6-4.2-19.2-.6-10.4,1.4-20.8,5.9-30,4.8-9.8,12.6-17.6,22-22.1,3.1-1.4,6.3-2.2,9.7-2.1,5.2.1,10.3.5,15.5,1l3.9,1.4c3.3,1.2,6.4,3,8.9,5.5,3.9,3.7,7.8,7.4,11.9,11,3.6,3.3,8.7,4.3,13.2,2.6,8.3-3.2,17-5.6,25.7-7,10-1.6,20.2-.8,29.9,2.3,5.5,1.8,10.4,5.1,14.4,9.5,5.3,6.7,8.9,14.7,10.5,23.2,1.1,4.5,1.3,9.2.6,13.8-1.3,8.2-4.6,15.9-9.7,22.2-5,5.9-11.5,10.2-18.6,12.3"/>
</svg>